PathFileType  4	(X/Y/Z) C:\Users\antoi\Documents\MyRepositories\mobilecap\ResultsAnalysis
DataRate	CameraRate	NumFrames	NumMarkers	Units	OrigDataRate	OrigDataStartFrame	OrigNumFrames
100.0	100.0	5	51	mm	100.0	53	139
Frame#	Time	r_knee			r_shank_antsup			r_ankle			r_calc			r_5meta			r_toe			L_knee			L_shank_antsup			L_ankle			L_calc			L_5meta			L_toe			r_sh2			r_sh3			r_sh4			L_sh2			L_sh3			r_thigh1			r_thigh2			r_thigh3			r_thigh4			r_thigh5			L_thigh1			L_thigh2			L_thigh3			L_thigh4			r.ASIS			r.PSIS			L.ASIS			L.PSIS			C7			R_Shoulder			L_Shoulder			R_Sternum			L_Sternum			R_humerus			R_elbow_med			R_elbow_lat			R_forearm			R_wrist_radius			R_wrist_ulna			L_humerus			L_elbow_med			L_elbow_lat			L_forearm			L_wrist_radius			L_wrist_ulna			R_HJC			L_HJC			R_HJC_reg			L_HJC_reg			
		X1	Y1	Z1	X2	Y2	Z2	X3	Y3	Z3	X4	Y4	Z4	X5	Y5	Z5	X6	Y6	Z6	X7	Y7	Z7	X8	Y8	Z8	X9	Y9	Z9	X10	Y10	Z10	X11	Y11	Z11	X12	Y12	Z12	X13	Y13	Z13	X14	Y14	Z14	X15	Y15	Z15	X16	Y16	Z16	X17	Y17	Z17	X18	Y18	Z18	X19	Y19	Z19	X20	Y20	Z20	X21	Y21	Z21	X22	Y22	Z22	X23	Y23	Z23	X24	Y24	Z24	X25	Y25	Z25	X26	Y26	Z26	X27	Y27	Z27	X28	Y28	Z28	X29	Y29	Z29	X30	Y30	Z30	X31	Y31	Z31	X32	Y32	Z32	X33	Y33	Z33	X34	Y34	Z34	X35	Y35	Z35	X36	Y36	Z36	X37	Y37	Z37	X38	Y38	Z38	X39	Y39	Z39	X40	Y40	Z40	X41	Y41	Z41	X42	Y42	Z42	X43	Y43	Z43	X44	Y44	Z44	X45	Y45	Z45	X46	Y46	Z46	X47	Y47	Z47	X48	Y48	Z48	X49	Y49	Z49	X50	Y50	Z50	X51	Y51	Z51	

53	0.52000000	311.68026	530.50864	-61.52021	309.59709	445.10621	-57.94669	147.85132	116.95547	-104.28944	77.44682	74.80844	-146.09795	281.54873	35.27682	-79.85367	313.42858	57.79650	-141.76866	596.94873	533.65163	-320.82564	667.24918	438.79654	-331.41619	753.93002	114.51211	-294.67983	704.65855	51.64272	-248.21136	934.14624	130.21342	-263.81465	924.41900	88.67714	-323.65130	274.26753	338.41279	-57.51173	239.36921	468.27603	-34.67831	193.83553	362.71824	-45.40995	579.66275	412.84062	-338.55412	626.59016	300.76520	-334.48101	453.14750	829.40220	-8.40138	445.53229	722.67084	-31.09438	384.07824	699.20715	-11.07184	336.76119	837.56085	-7.32290	332.55526	720.41053	-22.92719	556.13991	855.37032	-346.77245	608.83838	726.58664	-345.24550	449.29729	808.14711	-359.12254	510.15442	681.21779	-354.57957	504.92498	1030.62826	-44.04916	318.37876	1075.08451	-142.39419	528.41610	1026.71249	-304.81323	325.59185	1066.77524	-246.32473	319.51969	1577.28781	-191.47593	387.97542	1529.34535	-18.62796	386.49860	1540.45968	-356.16912	469.70067	1505.49511	-160.53556	471.12554	1503.80001	-214.93774	449.82580	1277.92081	85.98050	426.90063	1167.18925	34.70598	459.43116	1190.04939	108.53381	590.01077	1095.34642	98.88734	675.67487	1021.49537	72.02269	646.00587	1003.39621	101.00724	335.84675	1281.57574	-437.18061	262.96097	1210.19768	-375.94453	294.73300	1202.24674	-439.58646	318.10146	1030.53262	-440.49410	331.72819	931.71045	-419.88651	295.83712	931.85594	-440.11278	418.91410	954.11421	-58.95429	442.23465	948.84116	-288.07530	431.08185	964.70976	-81.03136	443.01009	950.96958	-252.88286	
54	0.53000000	322.30059	530.12594	-61.75873	318.51491	444.48753	-57.71779	149.71167	119.53383	-103.75486	78.62172	78.72333	-145.79761	281.63555	35.17090	-79.71481	313.41391	57.73401	-141.77028	606.35443	531.00837	-320.45135	678.04853	437.26991	-330.09102	769.56831	114.49532	-292.43572	722.34098	48.52680	-248.00262	948.38705	137.50449	-258.41801	941.87076	96.52047	-318.96547	280.88093	338.63548	-57.15236	248.68011	469.29920	-34.80923	200.83389	364.72573	-45.50710	591.03326	410.05534	-338.36016	639.57045	298.69248	-333.91505	465.44745	828.29131	-8.80941	457.55449	721.58078	-31.16171	395.82137	698.48926	-11.27179	349.11046	836.98617	-8.32106	344.44414	719.91361	-23.67475	568.80458	853.00160	-347.21227	619.95822	723.69413	-345.36621	461.52336	807.32836	-359.56824	520.82343	679.59868	-354.95574	518.38959	1029.17631	-44.60407	332.05271	1073.59311	-143.86753	542.69206	1025.50297	-305.37444	339.62010	1065.70853	-247.74149	332.37032	1575.92930	-192.37013	400.84933	1527.96061	-19.50478	399.64106	1538.86911	-357.11917	482.67265	1504.37134	-161.25519	484.11919	1502.63473	-215.62611	463.08592	1276.93366	85.11192	440.52278	1165.92691	34.02641	473.07143	1188.95114	107.71494	604.25041	1094.91459	97.53633	690.21883	1021.61911	70.24757	660.72634	1003.33634	99.32310	348.57263	1279.95432	-437.62927	275.69272	1208.73084	-376.13035	307.35416	1200.66303	-439.87089	330.15587	1028.84837	-440.58142	343.42365	929.96762	-419.83988	307.67369	930.29987	-440.10235	432.27963	952.65963	-60.07186	456.49944	947.65972	-289.10806	444.74992	962.82221	-82.09927	457.27457	949.77291	-254.00969	
55	0.54000000	333.45477	529.78486	-61.93590	327.80283	443.95725	-57.40193	151.86527	122.47750	-103.12982	80.03806	83.23357	-145.44214	281.72627	35.06715	-79.59381	313.36568	57.63213	-141.83476	616.58307	528.84816	-319.89686	688.79193	435.44431	-328.73128	782.02934	113.68088	-290.15974	736.11099	45.36242	-247.76289	959.41605	141.94787	-253.11051	955.56288	101.78722	-314.41303	287.79636	339.00778	-56.74300	258.41112	470.47532	-34.92258	208.20148	366.97523	-45.59585	602.11957	407.79784	-338.09295	651.20436	296.76545	-333.23883	478.10747	827.30817	-9.33722	469.98170	720.61462	-31.34993	408.00683	697.86528	-11.53818	361.80845	836.45130	-9.34946	356.77614	719.42110	-24.50048	581.91924	851.03574	-347.79993	631.77621	721.41176	-345.21805	474.28299	806.68599	-359.91168	532.27255	678.32813	-354.96154	532.10360	1027.82733	-45.30581	345.86601	1072.24420	-145.26986	556.96993	1024.52169	-306.11712	353.75096	1064.80740	-249.09861	345.23205	1574.66179	-193.35944	413.64242	1526.72101	-20.41243	412.80577	1537.35360	-358.13657	495.68921	1503.41868	-162.01801	497.14241	1501.63072	-216.36247	476.23798	1276.02139	84.13563	453.79794	1164.81236	33.30666	486.52309	1187.90838	106.81989	618.18849	1094.39504	96.15615	704.35942	1021.54658	68.48709	675.01026	1003.12231	97.67017	361.57979	1278.35778	-438.14247	288.81320	1207.20263	-376.40620	320.34754	1199.06407	-440.24241	342.73201	1027.16804	-440.79444	355.68022	928.22778	-419.93651	320.10413	928.68886	-440.21283	445.89910	951.30756	-61.28411	470.79588	946.68793	-290.25729	458.58548	961.06918	-83.31131	471.64660	948.75058	-255.29454	
56	0.55000000	345.22270	529.46190	-62.01688	337.52671	443.50367	-56.97237	154.33533	125.82505	-102.39058	81.75576	88.37188	-145.02671	281.82546	34.96194	-79.49817	313.31208	57.46133	-141.93755	627.60670	527.08558	-319.25339	699.58065	433.32540	-327.35268	791.65134	112.07935	-287.92447	746.09331	42.50683	-247.37761	967.86627	142.97714	-248.13913	965.85749	103.79173	-310.18318	295.03912	339.51315	-56.26714	268.62176	471.79301	-35.00967	216.01019	369.46606	-45.65861	613.03428	405.95036	-337.78910	661.75668	294.88121	-332.46511	491.13458	826.45912	-9.96462	482.84538	719.77172	-31.65372	420.68111	697.31246	-11.88389	374.86094	835.93947	-10.36715	369.55870	718.91729	-25.35177	595.53243	849.48720	-348.43220	644.27754	719.67201	-344.84306	487.59802	806.24207	-360.18945	544.45575	677.38540	-354.71311	546.03144	1026.61028	-46.15344	359.80538	1071.08444	-146.56578	571.26535	1023.78670	-307.03499	367.97822	1064.05067	-250.34982	358.10403	1573.50148	-194.45182	426.35513	1525.65981	-21.36396	425.98676	1535.95219	-359.21740	508.72140	1502.64602	-162.83212	510.20726	1500.79959	-217.15954	489.28460	1275.20595	83.04661	466.66348	1163.90532	32.56494	499.74738	1186.96083	105.84856	631.78487	1093.82884	94.75880	718.06356	1021.30970	66.76488	688.83939	1002.79092	96.06910	374.88388	1276.82169	-438.72369	302.33002	1205.65602	-376.78023	333.72739	1197.49027	-440.69929	355.85156	1025.53618	-441.13764	368.53467	926.53769	-420.19517	333.11620	927.08712	-440.48908	459.76763	950.08724	-62.55954	485.11754	945.93582	-291.49253	472.54438	959.56676	-84.63174	486.09431	947.90568	-256.69219	
57	0.56000000	357.69430	529.13227	-61.96608	347.78459	443.11155	-56.38775	157.17564	129.60229	-101.51437	83.86545	94.17889	-144.54344	281.94398	34.84787	-79.43433	313.26748	57.19791	-142.05204	639.26903	525.61105	-318.61640	710.45967	431.01625	-325.92962	798.97962	109.86360	-285.80649	752.74943	40.31496	-246.79912	974.48806	140.57488	-243.73136	973.34610	102.41224	-306.45978	302.66379	340.14491	-55.68414	279.39880	473.24365	-35.05468	224.35520	372.19833	-45.67657	623.87453	404.41895	-337.50743	671.56326	293.01666	-331.64380	504.53202	825.75033	-10.66482	496.17429	719.04991	-32.04934	433.88783	696.80647	-12.29559	388.26786	835.43221	-11.34890	382.80479	718.39187	-26.16371	609.64743	848.34708	-348.98833	657.38494	718.37361	-344.31245	501.44187	806.01731	-360.46545	557.25829	676.74492	-354.34473	560.12303	1025.56044	-47.12794	373.86603	1070.14429	-147.74584	585.61329	1023.30038	-308.09640	382.30148	1063.41516	-251.47909	370.98342	1572.46910	-195.65941	438.99840	1524.79607	-22.38347	439.17931	1534.70211	-360.36534	521.75229	1502.05022	-163.71171	523.31962	1500.14340	-218.03142	502.20092	1274.50451	81.85309	479.10038	1163.23468	31.80874	512.69981	1186.14007	104.80365	644.99558	1093.25195	93.35997	731.30332	1020.93738	65.10482	702.19391	1002.37514	94.53748	388.49578	1275.38032	-439.38133	316.23691	1204.13582	-377.25960	347.50124	1195.97960	-441.24275	369.52606	1023.99285	-441.61370	382.02471	924.94566	-420.62714	346.72849	925.55339	-440.95135	473.86478	949.02974	-63.86344	499.48211	945.39957	-292.77534	486.59704	958.40446	-86.00915	500.59520	947.23838	-258.14179	
